{
  "accessors": [
    {
      "bufferView": 2,
      "componentType": 5126,
      "count": 160,
      "max": [
        0.82166498899459839,
        3.440047025680542,
        0.93577200174331665
      ],
      "min": [
        -0.82166498899459839,
        3.4220459461212158,
        0.78616398572921753
      ],
      "type": "VEC3"
    },
    {
      "bufferView": 2,
      "byteOffset": 1920,
      "componentType": 5126,
      "count": 160,
      "max": [
        0.50063413381576538,
        0.996337890625,
        0.50063413381576538
      ],
      "min": [
        -0.50063413381576538,
        0.86564528942108154,
        -0.50059080123901367
      ],
      "type": "VEC3"
    },
    {
      "bufferView": 1,
      "componentType": 5126,
      "count": 160,
      "max": [
        0.98008197546005249,
        0.48026600480079651
      ],
      "min": [
        0.51984798908233643,
        0.019921999424695969
      ],
      "type": "VEC2"
    },
    {
      "bufferView": 0,
      "componentType": 5125,
      "count": 852,
      "max": [
        159
      ],
      "min": [
        0
      ],
      "type": "SCALAR"
    },
    {
      "bufferView": 2,
      "byteOffset": 3840,
      "componentType": 5126,
      "count": 4423,
      "max": [
        1.3279010057449341,
        3.5305120944976807,
        2.7702310085296631
      ],
      "min": [
        -1.3279010057449341,
        -3.533689022064209,
        0.26584601402282715
      ],
      "type": "VEC3"
    },
    {
      "bufferView": 2,
      "byteOffset": 56916,
      "componentType": 5126,
      "count": 4423,
      "max": [
        1,
        1,
        1
      ],
      "min": [
        -1,
        -1,
        -1
      ],
      "type": "VEC3"
    },
    {
      "bufferView": 3,
      "componentType": 5126,
      "count": 4423,
      "max": [
        1,
        1,
        1,
        1
      ],
      "min": [
        -1,
        -1,
        -1,
        -1
      ],
      "type": "VEC4"
    },
    {
      "bufferView": 1,
      "byteOffset": 1280,
      "componentType": 5126,
      "count": 4423,
      "max": [
        0.99811798334121704,
        0.99677902460098267
      ],
      "min": [
        0.039967998862266541,
        0.024195000529289246
      ],
      "type": "VEC2"
    },
    {
      "bufferView": 0,
      "byteOffset": 3408,
      "componentType": 5125,
      "count": 7680,
      "max": [
        4422
      ],
      "min": [
        0
      ],
      "type": "SCALAR"
    },
    {
      "bufferView": 2,
      "byteOffset": 109992,
      "componentType": 5126,
      "count": 8850,
      "max": [
        1.3279010057449341,
        3.4989728927612305,
        2.9470260143280029
      ],
      "min": [
        -1.3279010057449341,
        -3.506335973739624,
        -0
      ],
      "type": "VEC3"
    },
    {
      "bufferView": 2,
      "byteOffset": 216192,
      "componentType": 5126,
      "count": 8850,
      "max": [
        1,
        1,
        1
      ],
      "min": [
        -1,
        -1,
        -1
      ],
      "type": "VEC3"
    },
    {
      "bufferView": 3,
      "byteOffset": 70768,
      "componentType": 5126,
      "count": 8850,
      "max": [
        1,
        1,
        1,
        1
      ],
      "min": [
        -1,
        -1,
        -1,
        -1
      ],
      "type": "VEC4"
    },
    {
      "bufferView": 1,
      "byteOffset": 36664,
      "componentType": 5126,
      "count": 8850,
      "max": [
        0.99621599912643433,
        0.99825602769851685
      ],
      "min": [
        0.0018189999973401427,
        0.0013670000480487943
      ],
      "type": "VEC2"
    },
    {
      "bufferView": 0,
      "byteOffset": 34128,
      "componentType": 5125,
      "count": 33669,
      "max": [
        8849
      ],
      "min": [
        0
      ],
      "type": "SCALAR"
    },
    {
      "bufferView": 2,
      "byteOffset": 322392,
      "componentType": 5126,
      "count": 180,
      "max": [
        1.020272970199585,
        3.3817040920257568,
        2.7645881175994873
      ],
      "min": [
        -1.020272970199585,
        -3.4817559719085693,
        0.71661299467086792
      ],
      "type": "VEC3"
    },
    {
      "bufferView": 2,
      "byteOffset": 324552,
      "componentType": 5126,
      "count": 180,
      "max": [
        0.99999988079071045,
        1,
        1
      ],
      "min": [
        -0.99999988079071045,
        -1,
        -1
      ],
      "type": "VEC3"
    },
    {
      "bufferView": 1,
      "byteOffset": 107464,
      "componentType": 5126,
      "count": 180,
      "max": [
        0,
        0
      ],
      "min": [
        0,
        0
      ],
      "type": "VEC2"
    },
    {
      "bufferView": 0,
      "byteOffset": 168804,
      "componentType": 5125,
      "count": 300,
      "max": [
        179
      ],
      "min": [
        0
      ],
      "type": "SCALAR"
    },
    {
      "bufferView": 2,
      "byteOffset": 326712,
      "componentType": 5126,
      "count": 2731,
      "max": [
        1.1451719999313354,
        3.3989799022674561,
        2.726093053817749
      ],
      "min": [
        -1.1486450433731079,
        -3.4033079147338867,
        0.4037100076675415
      ],
      "type": "VEC3"
    },
    {
      "bufferView": 2,
      "byteOffset": 359484,
      "componentType": 5126,
      "count": 2731,
      "max": [
        1,
        1,
        1
      ],
      "min": [
        -1,
        -1,
        -1
      ],
      "type": "VEC3"
    },
    {
      "bufferView": 3,
      "byteOffset": 212368,
      "componentType": 5126,
      "count": 2731,
      "max": [
        1,
        1,
        1,
        1
      ],
      "min": [
        -1,
        -1,
        -1,
        -1
      ],
      "type": "VEC4"
    },
    {
      "bufferView": 1,
      "byteOffset": 108904,
      "componentType": 5126,
      "count": 2731,
      "max": [
        0.99858397245407104,
        0.99825602769851685
      ],
      "min": [
        0.0018189999973401427,
        0.0030839999672025442
      ],
      "type": "VEC2"
    },
    {
      "bufferView": 0,
      "byteOffset": 170004,
      "componentType": 5125,
      "count": 4578,
      "max": [
        2730
      ],
      "min": [
        0
      ],
      "type": "SCALAR"
    },
    {
      "bufferView": 2,
      "byteOffset": 392256,
      "componentType": 5126,
      "count": 10191,
      "max": [
        1.1950000524520874,
        3.4047870635986328,
        2.8541181087493896
      ],
      "min": [
        -1.1914839744567871,
        -3.4480910301208496,
        0.87244802713394165
      ],
      "type": "VEC3"
    },
    {
      "bufferView": 2,
      "byteOffset": 514548,
      "componentType": 5126,
      "count": 10191,
      "max": [
        1,
        1,
        1
      ],
      "min": [
        -1,
        -1,
        -1
      ],
      "type": "VEC3"
    },
    {
      "bufferView": 3,
      "byteOffset": 256064,
      "componentType": 5126,
      "count": 10191,
      "max": [
        1,
        1,
        1,
        1
      ],
      "min": [
        -1,
        -1,
        -1,
        -1
      ],
      "type": "VEC4"
    },
    {
      "bufferView": 1,
      "byteOffset": 130752,
      "componentType": 5126,
      "count": 10191,
      "max": [
        0.99586600065231323,
        0.99792397022247314
      ],
      "min": [
        0.003886000020429492,
        0.0088149998337030411
      ],
      "type": "VEC2"
    },
    {
      "bufferView": 0,
      "byteOffset": 188316,
      "componentType": 5125,
      "count": 40782,
      "max": [
        10190
      ],
      "min": [
        0
      ],
      "type": "SCALAR"
    }
  ],
  "asset": {
    "extras": {
      "author": "oldkestas (https://sketchfab.com/oldkestas)",
      "license": "CC-BY-4.0 (http://creativecommons.org/licenses/by/4.0/)",
      "source": "https://sketchfab.com/3d-models/-3205-e73c8b9cf1d94ab586a88e2771b856a0",
      "title": "ПАЗ-3205"
    },
    "generator": "Sketchfab-9.94.0",
    "version": "2.0"
  },
  "bufferViews": [
    {
      "buffer": 0,
      "byteLength": 351444,
      "byteOffset": 0,
      "name": "floatBufferViews",
      "target": 34963
    },
    {
      "buffer": 0,
      "byteLength": 212280,
      "byteOffset": 351444,
      "byteStride": 8,
      "name": "floatBufferViews",
      "target": 34962
    },
    {
      "buffer": 0,
      "byteLength": 636840,
      "byteOffset": 563724,
      "byteStride": 12,
      "name": "floatBufferViews",
      "target": 34962
    },
    {
      "buffer": 0,
      "byteLength": 419120,
      "byteOffset": 1200564,
      "byteStride": 16,
      "name": "floatBufferViews",
      "target": 34962
    }
  ],
  "buffers": [
    {
      "byteLength": 1619684,
      "uri": "scene.bin"
    }
  ],
  "images": [
    {
      "uri": "textures/body3205_baseColor.png"
    },
    {
      "uri": "textures/body3205_metallicRoughness.png"
    },
    {
      "uri": "textures/body3205_normal.png"
    },
    {
      "uri": "textures/marker_lights_baseColor.png"
    },
    {
      "uri": "textures/paz3205_INT_baseColor.png"
    },
    {
      "uri": "textures/paz3205_INT_metallicRoughness.png"
    },
    {
      "uri": "textures/paz3205_INT_normal.png"
    }
  ],
  "materials": [
    {
      "alphaMode": "BLEND",
      "doubleSided": true,
      "emissiveFactor": [
        0,
        0,
        0
      ],
      "name": "body3205",
      "normalTexture": {
        "index": 2,
        "scale": 1,
        "texCoord": 0
      },
      "occlusionTexture": {
        "index": 1,
        "strength": 1,
        "texCoord": 0
      },
      "pbrMetallicRoughness": {
        "baseColorFactor": [
          1,
          1,
          1,
          1
        ],
        "baseColorTexture": {
          "index": 0,
          "texCoord": 0
        },
        "metallicFactor": 1,
        "metallicRoughnessTexture": {
          "index": 1,
          "texCoord": 0
        },
        "roughnessFactor": 1
      }
    },
    {
      "doubleSided": true,
      "emissiveFactor": [
        0,
        0,
        0
      ],
      "name": "lights",
      "pbrMetallicRoughness": {
        "baseColorFactor": [
          0.97416832709112422,
          0.98996368808639268,
          0.82001633829252285,
          1
        ],
        "metallicFactor": 0,
        "roughnessFactor": 0.84349154199999998
      }
    },
    {
      "doubleSided": true,
      "emissiveFactor": [
        0,
        0,
        0
      ],
      "name": "marker_lights",
      "pbrMetallicRoughness": {
        "baseColorFactor": [
          1,
          1,
          1,
          1
        ],
        "baseColorTexture": {
          "index": 3,
          "texCoord": 0
        },
        "metallicFactor": 0,
        "roughnessFactor": 0.84349154199999998
      }
    },
    {
      "doubleSided": true,
      "emissiveFactor": [
        0,
        0,
        0
      ],
      "name": "paz3205_INT",
      "normalTexture": {
        "index": 6,
        "scale": 1,
        "texCoord": 0
      },
      "occlusionTexture": {
        "index": 5,
        "strength": 1,
        "texCoord": 0
      },
      "pbrMetallicRoughness": {
        "baseColorFactor": [
          1,
          1,
          1,
          1
        ],
        "baseColorTexture": {
          "index": 4,
          "texCoord": 0
        },
        "metallicFactor": 1,
        "metallicRoughnessTexture": {
          "index": 5,
          "texCoord": 0
        },
        "roughnessFactor": 1
      }
    }
  ],
  "meshes": [
    {
      "primitives": [
        {
          "attributes": {
            "NORMAL": 1,
            "POSITION": 0,
            "TEXCOORD_0": 2
          },
          "indices": 3,
          "material": 1,
          "mode": 4
        }
      ]
    },
    {
      "primitives": [
        {
          "attributes": {
            "NORMAL": 5,
            "POSITION": 4,
            "TANGENT": 6,
            "TEXCOORD_0": 7
          },
          "indices": 8,
          "material": 0,
          "mode": 4
        }
      ]
    },
    {
      "primitives": [
        {
          "attributes": {
            "NORMAL": 10,
            "POSITION": 9,
            "TANGENT": 11,
            "TEXCOORD_0": 12
          },
          "indices": 13,
          "material": 0,
          "mode": 4
        }
      ]
    },
    {
      "primitives": [
        {
          "attributes": {
            "NORMAL": 15,
            "POSITION": 14,
            "TEXCOORD_0": 16
          },
          "indices": 17,
          "material": 2,
          "mode": 4
        }
      ]
    },
    {
      "primitives": [
        {
          "attributes": {
            "NORMAL": 19,
            "POSITION": 18,
            "TANGENT": 20,
            "TEXCOORD_0": 21
          },
          "indices": 22,
          "material": 3,
          "mode": 4
        }
      ]
    },
    {
      "primitives": [
        {
          "attributes": {
            "NORMAL": 24,
            "POSITION": 23,
            "TANGENT": 25,
            "TEXCOORD_0": 26
          },
          "indices": 27,
          "material": 3,
          "mode": 4
        }
      ]
    }
  ],
  "nodes": [
    {
      "children": [
        1
      ],
      "name": "RootNode (gltf orientation matrix)",
      "rotation": [
        -0.70710678118654746,
        -0,
        -0,
        0.70710678118654757
      ]
    },
    {
      "children": [
        2
      ],
      "name": "RootNode (model correction matrix)"
    },
    {
      "children": [
        3,
        4,
        5,
        6,
        7,
        8
      ],
      "name": "paz3205.obj.cleaner.materialmerger.gles"
    },
    {
      "mesh": 0,
      "name": ""
    },
    {
      "mesh": 1,
      "name": ""
    },
    {
      "mesh": 2,
      "name": ""
    },
    {
      "mesh": 3,
      "name": ""
    },
    {
      "mesh": 4,
      "name": ""
    },
    {
      "mesh": 5,
      "name": ""
    }
  ],
  "samplers": [
    {
      "magFilter": 9729,
      "minFilter": 9987,
      "wrapS": 33071,
      "wrapT": 33071
    },
    {
      "magFilter": 9729,
      "minFilter": 9987,
      "wrapS": 10497,
      "wrapT": 10497
    }
  ],
  "scene": 0,
  "scenes": [
    {
      "name": "OSG_Scene",
      "nodes": [
        0
      ]
    }
  ],
  "textures": [
    {
      "sampler": 0,
      "source": 0
    },
    {
      "sampler": 1,
      "source": 1
    },
    {
      "sampler": 1,
      "source": 2
    },
    {
      "sampler": 1,
      "source": 3
    },
    {
      "sampler": 1,
      "source": 4
    },
    {
      "sampler": 1,
      "source": 5
    },
    {
      "sampler": 1,
      "source": 6
    }
  ]
}

